Willem van Oranje (1983)  (Disc 1-3) Tv-serie)       

 

Nederland / België
Drama
460 minuten (miniserie, 3 delen)

geregisseerd door Walter van der Kamp
met Jeroen Krabbé, Willem Nijholt en Linda van Dyck

Hoewel loyaal aan de Spaanse kroon krijgt Willem van Oranje-Nassau gewetensbezwaren als hij de plannen van Philips II hoort. Er worden bloedige inquisities tegen de protestanten in Europa beraamd die ook het Nederlandse volk niet zullen overslaan. Hoewel katholiek, is Willem absoluut tegen iedere vorm van aantasting van de godsdienstvrijheid. Als in 1566 in Brussel de beeldenstorm heeft plaatsgevonden, één van de grootste opstanden tegen de inquisitie, keert Willem zich definitief tegen de Koning van Spanje en kiest hij voor het Nederlandse volk. Vanaf dat moment wordt het zijn doel de Nederlanden te verenigen om zo de Spaanse bezetting tot een halt te roepen


English

As the Dutch title indicates, this series chronicles magnificently the life of William I "the Silent" of Orange, who grew up with his Lutheran family in the princely castle of a minor German countship of Nassau at Dillingen, till at eleven he inherited the vast riches of the prince of Orange (in southern France, with major possessions in the Low Countries), and was sent to the Holy Roman emperor Charles V's sister Margareth's gubernatorial court in Brussels to receive a Catholic education. He soon became a Habsburg confident and high councilor, a gifted diplomat and military officer. However when the persecution of the Protestants -and some other measures- arouses great resistance with the people and many nobles, it gets ever harder to remain loyal to the crown for the Lutheran at heart, who ends up leading the opposition once Charles' heir, king Philip II of Spain, ceases all negotiations and tries to impose his absolute rule by military force, which however only succeeds in splitting the Low Countries in a southern Catholic half under Habsburg control and a northern one, dominated by Calvinists, which ultimately becomes the 'crowned republic' of the Seventeen United Provices under William (and later his heirs, for centuries maintaining his title of Stadholder, theoretically Habsburg governor), painstakingly seeking a diplomatic course amidst the wars and religious civil wars throughout Europe. His personal life is also sketched, including several marriage alliances and a recognized son out of wedlock.

 
DVD Gegevens:
Titel: Willem van Oranje (Disc 1 Tv-serie) 
Menu: Ja
Extra's: Ja
Taal/Geluid: Nederlands (Dolby Digital)
Subs: Nee
Cover en Label: ja

Video
ID                               : 224 (0xE0)
Format                           : MPEG Video
Format version                   : Version 2
Format profile                   : Main@Main
Format settings, Matrix          : Default
Duration                         : 23mn 3s
Bit rate mode                    : Constant
Bit rate                         : 5 771 Kbps
Nominal bit rate                 : 5 900 Kbps
Width                            : 720 pixels
Height                           : 576 pixels
Display aspect ratio             : 4/3
Frame rate                       : 25.000 fps
Standard                         : PAL
Colorimetry                      : 4:2:0
Scan type                        : Interlaced
Scan order                       : Top Field First
Bits/(Pixel*Frame)               : 0.557
Stream size                      : 952 MiB (93%)

Audio
ID                               : 128 (0x80)
Format                           : AC-3
Format/Info                      : Audio Coding 3
Duration                         : 23mn 3s
Bit rate mode                    : Constant
Bit rate                         : 192 Kbps
Channel(s)                       : 2 channels
Channel positions                : L R
Sampling rate                    : 48.0 KHz
Stream size                      : 31.7 MiB (3%)

Weblink :  http://www.moviemeter.nl/film/33037
Weblink :  http://www.imdb.com/title/tt0149379

*****************************************

Brought to you by 
Pioen

2Lions Team

meer zien??
Kom dan eens kijken op ons forum 




2Lions the site to be for all your Dutch MOVIES and more

******************************************


DON T HIT AND RUN Niet gelijk afhaken als de FILM binnen is blijf seeden. 

Don`t quit after you finished the download, but keep seeding


There are fake torrents from uploaders who use our team name.
Those are not ours, or members from our team.
We 2Lions-Team are not responsible for the fake posts on our name

Wij 2Lions-Team zijn niet verantwoordelijk voor die zieke FAKE posten die op onze naam worden gedaan  
